<svg xmlns="http://www.w3.org/2000/svg" viewBox="0 0 21 21">
  <g id="icon-question" transform="translate(0.5 0.5)">
    <path id="_" data-name="?" d="M-3994.5,9a1,1,0,0,1,1-1,1,1,0,0,1,1,1,1,1,0,0,1-1,1A1,1,0,0,1-3994.5,9Zm0-3V4a1,1,0,0,1,1-1,1.5,1.5,0,0,0,1.5-1.5,1.5,1.5,0,0,0-1.5-1.5,1.5,1.5,0,0,0-1.5,1.5,1,1,0,0,1-1,1,1,1,0,0,1-1-1,3.5,3.5,0,0,1,3.5-3.5,3.5,3.5,0,0,1,3.5,3.5,3.5,3.5,0,0,1-2.5,3.337V6a1,1,0,0,1-1,1A1,1,0,0,1-3994.5,6Z" transform="translate(4003.5 6)" fill="currentColor"/>
    <path id="_0" data-name="0" d="M10,0A10,10,0,1,0,20,10,10.011,10.011,0,0,0,10,0" fill="none" stroke="currentColor" stroke-width="1"/>
  </g>
</svg>
