<!-- Generated by IcoMoon.io -->
<svg version="1.1" xmlns="http://www.w3.org/2000/svg" viewBox="0 0 20 20">
<title>clock</title>
<path fill="#fff" d="3.401c-3.639 0-6.6 2.96-6.6 6.599s2.961 6.6 6.6 6.6c3.639 0 6.6-2.961 6.6-6.6s-2.961-6.599-6.6-6.599zM10 18c-4.411 0-8-3.589-8-8s3.589-8 8-8c4.411 0 8 3.589 8 8s-3.589 8-8 8z"></path>
<path fill="#070707" d="M13.668 12.34c0.173-0.346 0.033-0.766-0.313-0.938l-2.858-1.429v-4.434c0-0.386-0.313-0.7-0.7-0.7s-0.7 0.314-0.7 0.7v4.866c0 0.266 0.15 0.508 0.387 0.626l3.246 1.622c0.099 0.051 0.207 0.075 0.311 0.075 0.257 0 0.505-0.142 0.627-0.388zM10 18"></path>
</svg>
