<!-- Generated by IcoMoon.io -->
<svg version="1.1" xmlns="http://www.w3.org/2000/svg" viewBox="0 0 20 20" fill="currentColor">
<title>double-chevron-right</title>
<path d="M5.366 15.766l5.2-5.2c0.312-0.313 0.312-0.82 0-1.132l-5.2-5.2c-0.312-0.312-0.819-0.312-1.132 0s-0.312 0.819 0 1.132l4.635 4.634-4.635 4.634c-0.312 0.313-0.312 0.82 0 1.132 0.156 0.156 0.361 0.234 0.566 0.234s0.41-0.078 0.566-0.234zM10 16c-0.204 0-0.409-0.078-0.566-0.234-0.312-0.312-0.312-0.819 0-1.132l4.635-4.634-4.635-4.634c-0.312-0.313-0.312-0.82 0-1.132 0.313-0.312 0.82-0.312 1.132 0l5.2 5.2c0.312 0.312 0.312 0.819 0 1.132l-5.2 5.2c-0.156 0.156-0.361 0.234-0.566 0.234z"></path>
</svg>
