<!-- Generated by IcoMoon.io -->
<svg version="1.1" xmlns="http://www.w3.org/2000/svg" viewBox="0 0 20 20" fill="currentColor">
<title>double-chevron-left</title>
<path d="M15.766 15.766c0.312-0.312 0.312-0.819 0-1.132l-4.635-4.634 4.635-4.634c0.312-0.313 0.312-0.82 0-1.132s-0.819-0.312-1.132 0l-5.2 5.2c-0.312 0.312-0.312 0.819 0 1.132l5.2 5.2c0.156 0.156 0.361 0.234 0.566 0.234s0.41-0.078 0.566-0.234zM10 16c-0.205 0-0.41-0.078-0.566-0.234l-5.2-5.2c-0.312-0.313-0.312-0.82 0-1.132l5.2-5.2c0.312-0.312 0.819-0.312 1.132 0s0.312 0.819 0 1.132l-4.635 4.634 4.635 4.634c0.312 0.313 0.312 0.82 0 1.132-0.156 0.156-0.362 0.234-0.566 0.234z"></path>
</svg>
